<svg width="58" height="59" viewBox="0 0 58 59" fill="none" xmlns="http://www.w3.org/2000/svg">
<g clip-path="url(#clip0_355_40)">
<path d="M39.875 22.25C39.875 25.1342 38.7292 27.9003 36.6898 29.9398C34.6503 31.9792 31.8842 33.125 29 33.125C26.1158 33.125 23.3497 31.9792 21.3102 29.9398C19.2708 27.9003 18.125 25.1342 18.125 22.25C18.125 19.3658 19.2708 16.5997 21.3102 14.5602C23.3497 12.5208 26.1158 11.375 29 11.375C31.8842 11.375 34.6503 12.5208 36.6898 14.5602C38.7292 16.5997 39.875 19.3658 39.875 22.25Z" fill="white"/>
<path fill-rule="evenodd" clip-rule="evenodd" d="M0 29.5C0 21.8087 3.05535 14.4325 8.4939 8.9939C13.9325 3.55535 21.3087 0.5 29 0.5C36.6913 0.5 44.0675 3.55535 49.5061 8.9939C54.9447 14.4325 58 21.8087 58 29.5C58 37.1913 54.9447 44.5675 49.5061 50.0061C44.0675 55.4447 36.6913 58.5 29 58.5C21.3087 58.5 13.9325 55.4447 8.4939 50.0061C3.05535 44.5675 0 37.1913 0 29.5ZM29 4.125C24.2214 4.12525 19.5401 5.47481 15.4947 8.01835C11.4493 10.5619 8.2044 14.196 6.13337 18.5025C4.06234 22.8089 3.2494 27.6126 3.78812 32.3607C4.32684 37.1088 6.19532 41.6083 9.1785 45.3413C11.7522 41.1942 17.4181 36.75 29 36.75C40.5819 36.75 46.2441 41.1906 48.8215 45.3413C51.8047 41.6083 53.6732 37.1088 54.2119 32.3607C54.7506 27.6126 53.9377 22.8089 51.8666 18.5025C49.7956 14.196 46.5507 10.5619 42.5053 8.01835C38.4599 5.47481 33.7786 4.12525 29 4.125Z" fill="white"/>
</g>
<defs>
<clipPath id="clip0_355_40">
<rect width="58" height="58" fill="white" transform="translate(0 0.5)"/>
</clipPath>
</defs>
</svg>
