<svg width="33" height="30" viewBox="0 0 33 30" fill="none" xmlns="http://www.w3.org/2000/svg">
<path d="M28.5 30H8.25C6.85761 30 5.52226 29.4469 4.53769 28.4623C3.55312 27.4777 3 26.1424 3 24.75V4.5C3 3.30653 3.47411 2.16193 4.31802 1.31802C5.16193 0.474106 6.30653 0 7.5 0H28.5C28.8978 0 29.2794 0.158035 29.5607 0.43934C29.842 0.720644 30 1.10218 30 1.5V28.5C30 28.8978 29.842 29.2794 29.5607 29.5607C29.2794 29.842 28.8978 30 28.5 30ZM27 27V22.5H8.25C7.65326 22.5 7.08097 22.7371 6.65901 23.159C6.23705 23.581 6 24.1533 6 24.75C6 25.3467 6.23705 25.919 6.65901 26.341C7.08097 26.7629 7.65326 27 8.25 27H27Z" fill="black"/>
</svg>
