<svg width="58" height="59" viewBox="0 0 58 59" fill="none" xmlns="http://www.w3.org/2000/svg">
<path d="M52.7364 18.4583C52.5141 18.137 52.2173 17.8744 51.8713 17.693C51.5254 17.5116 51.1406 17.4168 50.7499 17.4167H17.7213L14.9325 10.7225C14.5668 9.84096 13.9476 9.08785 13.1534 8.55865C12.3592 8.02946 11.4257 7.74802 10.4713 7.75001H4.83325V12.5833H10.4713L21.936 40.0971C22.1196 40.5373 22.4294 40.9133 22.8264 41.1778C23.2233 41.4423 23.6896 41.5834 24.1666 41.5833H43.4999C44.5077 41.5833 45.4091 40.9574 45.7643 40.0173L53.0143 20.684C53.1514 20.3182 53.1976 19.9246 53.1492 19.5369C53.1008 19.1493 52.9592 18.7792 52.7364 18.4583ZM41.8252 36.75H25.7785L19.7368 22.25H47.2627L41.8252 36.75Z" fill="white"/>
<path d="M25.375 51.25C27.377 51.25 29 49.627 29 47.625C29 45.623 27.377 44 25.375 44C23.373 44 21.75 45.623 21.75 47.625C21.75 49.627 23.373 51.25 25.375 51.25Z" fill="white"/>
<path d="M42.2916 51.25C44.2937 51.25 45.9166 49.627 45.9166 47.625C45.9166 45.623 44.2937 44 42.2916 44C40.2896 44 38.6666 45.623 38.6666 47.625C38.6666 49.627 40.2896 51.25 42.2916 51.25Z" fill="white"/>
</svg>
