<svg width="34" height="24" viewBox="0 0 34 24" fill="none" xmlns="http://www.w3.org/2000/svg">
<path d="M3.77778 0.5C1.6941 0.5 0 2.21901 0 4.33333V8.16667C0 8.69375 0.436806 9.10703 0.926736 9.28073C2.03646 9.67005 2.83333 10.7422 2.83333 12C2.83333 13.2578 2.03646 14.3299 0.926736 14.7193C0.436806 14.893 0 15.3062 0 15.8333V19.6667C0 21.781 1.6941 23.5 3.77778 23.5H30.2222C32.3059 23.5 34 21.781 34 19.6667V15.8333C34 15.3062 33.5632 14.893 33.0733 14.7193C31.9635 14.3299 31.1667 13.2578 31.1667 12C31.1667 10.7422 31.9635 9.67005 33.0733 9.28073C33.5632 9.10703 34 8.69375 34 8.16667V4.33333C34 2.21901 32.3059 0.5 30.2222 0.5H3.77778ZM7.55556 7.20833V16.7917C7.55556 17.3188 7.98056 17.75 8.5 17.75H25.5C26.0194 17.75 26.4444 17.3188 26.4444 16.7917V7.20833C26.4444 6.68125 26.0194 6.25 25.5 6.25H8.5C7.98056 6.25 7.55556 6.68125 7.55556 7.20833ZM5.66667 6.25C5.66667 5.18984 6.51076 4.33333 7.55556 4.33333H26.4444C27.4892 4.33333 28.3333 5.18984 28.3333 6.25V17.75C28.3333 18.8102 27.4892 19.6667 26.4444 19.6667H7.55556C6.51076 19.6667 5.66667 18.8102 5.66667 17.75V6.25Z" fill="black"/>
</svg>
