<svg width="62" height="63" viewBox="0 0 62 63" fill="none" xmlns="http://www.w3.org/2000/svg">
<path d="M49.9148 25.5938C49.9148 31.2416 48.1269 36.4588 45.1153 40.6916L60.3057 56.2816C61.8055 57.8197 61.8055 60.3176 60.3057 61.8557C58.8058 63.3938 56.3701 63.3938 54.8702 61.8557L39.6798 46.2656C35.5523 49.3664 30.4648 51.1875 24.9574 51.1875C11.1708 51.1875 0 39.7318 0 25.5938C0 11.4557 11.1708 0 24.9574 0C38.7439 0 49.9148 11.4557 49.9148 25.5938ZM24.9574 43.3125C27.2264 43.3125 29.4732 42.8542 31.5695 41.9637C33.6657 41.0733 35.5705 39.7681 37.1749 38.1228C38.7793 36.4775 40.052 34.5242 40.9203 32.3744C41.7887 30.2247 42.2356 27.9206 42.2356 25.5938C42.2356 23.2669 41.7887 20.9628 40.9203 18.8131C40.052 16.6633 38.7793 14.71 37.1749 13.0647C35.5705 11.4194 33.6657 10.1142 31.5695 9.22376C29.4732 8.33331 27.2264 7.875 24.9574 7.875C22.6884 7.875 20.4416 8.33331 18.3453 9.22376C16.249 10.1142 14.3443 11.4194 12.7399 13.0647C11.1354 14.71 9.86273 16.6633 8.99442 18.8131C8.12611 20.9628 7.67919 23.2669 7.67919 25.5938C7.67919 27.9206 8.12611 30.2247 8.99442 32.3744C9.86273 34.5242 11.1354 36.4775 12.7399 38.1228C14.3443 39.7681 16.249 41.0733 18.3453 41.9637C20.4416 42.8542 22.6884 43.3125 24.9574 43.3125Z" fill="#C8AB83"/>
</svg>
